<?xml version="1.0" encoding="UTF-8"?>
<svg id="_Слой_1" data-name="Слой 1" xmlns="http://www.w3.org/2000/svg" viewBox="0 0 44.92 30">
  <path d="M22.46,19c-3.58,0-6.5-2.92-6.5-6.5s2.92-6.5,6.5-6.5,6.5,2.92,6.5,6.5-2.92,6.5-6.5,6.5Zm0-11c-2.48,0-4.5,2.02-4.5,4.5s2.02,4.5,4.5,4.5,4.5-2.02,4.5-4.5-2.02-4.5-4.5-4.5Z"/>
  <path d="M22.46,30c-4.18,0-10.5,0-10.5-5.5,0-4.9,7.81-6.5,10.5-6.5,3.29,0,10.5,1.64,10.5,6.5,0,5.5-6.32,5.5-10.5,5.5Zm0-10c-2.34,0-8.5,1.38-8.5,4.5s2.86,3.5,8.5,3.5,8.5-.54,8.5-3.5c0-3.21-6-4.5-8.5-4.5Z"/>
  <path d="M10.42,13c-3.56,0-6.48-2.9-6.5-6.46-.01-1.74,.65-3.37,1.88-4.61C7.02,.7,8.65,.01,10.39,0c3.6,0,6.52,2.9,6.54,6.46,.02,3.58-2.88,6.52-6.46,6.54h-.04Zm-.2-2c2.48-.02,4.6-2.05,4.59-4.53-.02-2.47-1.92-4.47-4.38-4.47-1.23,0-2.36,.48-3.2,1.34s-1.54,1.99-1.53,3.19c.01,2.47,2.27,4.47,4.27,4.47"/>
  <path d="M9.98,24c-2.69,0-4.84-.14-6.5-.71C1.19,22.5,.02,20.91,0,18.56c-.01-1.54,.76-3.7,4.51-5.26,2.28-.95,4.81-1.3,5.95-1.31,1.27,0,2.99,.24,4.49,.66l-.54,1.93c-1.56-.44-3.04-.58-3.94-.58-.95,0-3.2,.33-5.19,1.15-1.5,.62-3.29,1.72-3.27,3.4,0,1.48,.65,2.33,2.13,2.85,1.51,.52,3.64,.62,6.39,.6v2c-.18,0-.37,0-.55,0Z"/>
  <path d="M34.5,13h-.04c-1.74-.01-3.37-.7-4.58-1.93-1.22-1.24-1.89-2.87-1.88-4.61,.02-3.56,2.94-6.46,6.5-6.46,3.62,.02,6.52,2.96,6.5,6.54-.02,3.56-2.94,6.46-6.5,6.46Zm.46-2c2,0,4.25-2.01,4.27-4.47,.02-2.48-2.22-4.51-4.7-4.53-2.49,0-4.51,2.01-4.53,4.47,0,1.2,.45,2.33,1.3,3.19s2.2,1.33,3.4,1.34"/>
  <path d="M35.31,24c-.31,0-.62,0-.92,0v-2c5.68,.03,8.52-.49,8.53-3.45,.02-3.12-6.13-4.54-8.47-4.55h-.05c-.88,0-2.36,.15-3.89,.58l-.54-1.93c1.5-.42,3.22-.67,4.49-.66,2.69,.02,10.49,1.67,10.46,6.56-.03,5.11-5.49,5.44-9.61,5.44Z"/>
</svg>