<?xml version="1.0" encoding="UTF-8"?>
<svg id="_Слой_1" data-name=" Слой 1" xmlns="http://www.w3.org/2000/svg" viewBox="0 0 47.91 47.86">
  <path d="M46.05,35.77c-2.42-1.14-7-3.39-10.51-5.67-1-.65-2.27-.69-3.27-.14l-4.4,2.13-12.1-12.1,2.1-4.34c.59-1.06,.53-2.36-.16-3.39-2.18-3.25-4.08-6.72-5.63-10.3-.36-.82-1.04-1.46-1.87-1.77-.84-.3-1.75-.25-2.55,.15l-3.4,1.71C.61,3.88-.99,8.25,.63,11.99c3.41,7.87,8.19,14.92,14.22,20.96,6.04,6.05,13.11,10.85,21.03,14.28,.99,.43,2.02,.63,3.04,.63,2.83,0,5.55-1.57,6.9-4.25l1.74-3.47c.4-.79,.46-1.68,.17-2.51-.29-.83-.88-1.49-1.68-1.87h0Zm-.28,3.5l-1.74,3.47c-1.36,2.7-4.59,3.88-7.36,2.68-7.68-3.33-14.54-7.99-20.41-13.86C10.41,25.69,5.77,18.85,2.46,11.21c-1.2-2.77-.02-6,2.69-7.36l3.4-1.71c.31-.15,.65-.17,.97-.06,.33,.12,.58,.36,.72,.68,1.6,3.69,3.56,7.27,5.81,10.62,.27,.4,.29,.9,.05,1.35l-2.43,5.03c-.19,.38-.11,.84,.19,1.14l13.11,13.11c.3,.3,.76,.38,1.14,.19l5.08-2.46c.4-.22,.88-.21,1.26,.04,3.6,2.34,8.28,4.64,10.75,5.8,.3,.14,.53,.39,.64,.71s.09,.66-.07,.96h0Z"/>
</svg>